<svg xmlns="http://www.w3.org/2000/svg" viewBox="0 0 1600 900" role="img" aria-label="Archive room">
  <rect width="1600" height="900" fill="#2d2b26"/>
  <rect y="640" width="1600" height="260" fill="#171513"/>
  <rect x="70" y="180" width="250" height="430" rx="14" fill="#40372f" stroke="#b9965c" stroke-width="8"/>
  <rect x="118" y="250" width="36" height="90" rx="10" fill="#8c7347"/>
  <g fill="#4c433a" stroke="#786a57" stroke-width="6">
    <rect x="1040" y="150" width="390" height="480" rx="14"/>
    <rect x="1080" y="200" width="310" height="82" rx="10"/>
    <rect x="1080" y="322" width="310" height="82" rx="10"/>
    <rect x="1080" y="444" width="310" height="82" rx="10"/>
  </g>
  <rect x="1156" y="472" width="190" height="136" rx="14" fill="#24201d" stroke="#d2b16a" stroke-width="10"/>
  <circle cx="1250" cy="540" r="38" fill="#171515" stroke="#d2b16a" stroke-width="8"/>
  <circle cx="1250" cy="540" r="12" fill="#d2b16a"/>
  <rect x="400" y="230" width="430" height="330" rx="20" fill="#3f342b"/>
  <g fill="#a08864">
    <rect x="460" y="290" width="70" height="190" rx="10"/>
    <rect x="570" y="260" width="70" height="220" rx="10"/>
    <rect x="680" y="320" width="70" height="160" rx="10"/>
  </g>
  <circle cx="980" cy="120" r="72" fill="#caa35d" opacity=".14"/>
  <text x="800" y="88" fill="#eee3ca" font-family="Georgia,serif" font-size="42" text-anchor="middle" opacity=".72">Archive</text>
</svg>
